<?xml version="1.0" encoding="UTF-8" standalone="no"?>
<!-- Generator: Adobe Illustrator 16.2.0, SVG Export Plug-In . SVG Version: 6.00 Build 0)  -->

<svg
   xmlns:dc="http://purl.org/dc/elements/1.1/"
   xmlns:cc="http://creativecommons.org/ns#"
   xmlns:rdf="http://www.w3.org/1999/02/22-rdf-syntax-ns#"
   xmlns:svg="http://www.w3.org/2000/svg"
   xmlns="http://www.w3.org/2000/svg"
   xmlns:sodipodi="http://sodipodi.sourceforge.net/DTD/sodipodi-0.dtd"
   xmlns:inkscape="http://www.inkscape.org/namespaces/inkscape"
   version="1.2"
   id="Layer_1"
   x="0px"
   y="0px"
   width="498.452px"
   height="427.678px"
   viewBox="0 0 498.452 427.678"
   overflow="scroll"
   xml:space="preserve"
   inkscape:version="0.91 r13725"
   sodipodi:docname="books.svg"><metadata
     id="metadata32"><rdf:RDF><cc:Work
         rdf:about=""><dc:format>image/svg+xml</dc:format><dc:type
           rdf:resource="http://purl.org/dc/dcmitype/StillImage" /></cc:Work></rdf:RDF></metadata><defs
     id="defs30" /><sodipodi:namedview
     pagecolor="#ffffff"
     bordercolor="#666666"
     borderopacity="1"
     objecttolerance="10"
     gridtolerance="10"
     guidetolerance="10"
     inkscape:pageopacity="0"
     inkscape:pageshadow="2"
     inkscape:window-width="1920"
     inkscape:window-height="1017"
     id="namedview28"
     showgrid="false"
     inkscape:zoom="1"
     inkscape:cx="-19.875706"
     inkscape:cy="210.49059"
     inkscape:window-x="0"
     inkscape:window-y="30"
     inkscape:window-maximized="1"
     inkscape:current-layer="Layer_1" /><g
     id="g4196"
     style="fill:#1272e0;fill-opacity:1"><path
       id="path4190"
       d="m 160.816,285.6 -124.837,0 0,-231.746 124.837,0 0,231.746 z"
       style="fill:#1272e0;fill-opacity:1" /><path
       id="path4188"
       d="m 35.979,325.029 124.837,0 0,-28.446 -124.837,0 0,28.446 z"
       style="fill:#1272e0;fill-opacity:1" /><path
       id="path4186"
       d="m 50.792,368.496 95.209,0 c 8.145,0 14.814,-7.033 14.814,-15.618 l 0,-16.876 -124.836,0 0,16.876 c 0,8.585 6.652,15.618 14.813,15.618 z"
       style="fill:#1272e0;fill-opacity:1" /><path
       id="path4184"
       d="m 146.002,5.828 -95.21,0 c -8.162,0 -14.814,7.011 -14.814,15.607 l 0,20.229 124.837,0 0,-20.229 C 160.816,12.839 154.146,5.828 146.002,5.828 Z"
       style="fill:#1272e0;fill-opacity:1" /></g><path
     d="M 401.61914 0 C 400.85914 0 400.1228 0.07579687 399.3418 0.21679688 L 328.05859 13.490234 C 320.91659 14.792234 316.09742 22.0525 317.35742 29.5625 L 372.51172 359.36719 C 373.64072 366.08619 379.24163 370.82813 385.51562 370.82812 C 386.25263 370.82812 387.01148 370.77577 387.77148 370.63477 L 459.07617 357.37109 C 466.21717 356.05809 471.03534 348.81983 469.77734 341.29883 L 414.60156 11.470703 C 413.49356 4.7747032 407.87014 -2.3684758e-15 401.61914 0 z M 401.21094 32.833984 C 402.41708 32.868902 403.47339 33.784672 403.68164 35.076172 L 404.50586 40.101562 C 404.76686 41.566563 403.81283 42.977281 402.42383 43.238281 L 338.06445 55.210938 C 336.67445 55.470937 335.32936 54.471375 335.06836 52.984375 L 334.24414 47.992188 C 333.98314 46.516188 334.93717 45.093266 336.32617 44.822266 L 400.68555 32.873047 C 400.86192 32.840547 401.03863 32.828996 401.21094 32.833984 z M 449.00586 318.67383 C 450.21165 318.7142 451.27163 319.62452 451.5 320.91602 L 452.34766 325.91992 C 452.58666 327.38492 451.65319 328.80684 450.24219 329.08984 L 385.86133 341.03711 C 384.47133 341.29811 383.12572 340.30898 382.88672 338.83398 L 382.03906 333.81836 C 381.80006 332.36536 382.73405 330.93383 384.12305 330.67383 L 448.48242 318.71289 C 448.65867 318.68177 448.8336 318.66806 449.00586 318.67383 z "
     id="path4182"
     style="fill:#f4b400;fill-opacity:1" /><path
     d="m 498.452,416.945 c 0,-5.927 -4.56,-10.725 -10.182,-10.725 l -478.09,0 C 4.569,406.22 0,411.018 0,416.945 c 0,5.903 4.569,10.732 10.18,10.732 l 478.09,0 c 5.623,10e-4 10.182,-4.828 10.182,-10.732 z"
     id="path3"
     style="fill:#127200;fill-opacity:1" /><g
     id="g5"
     style="fill:#c4170c;fill-opacity:1"><linearGradient
       id="SVGID_1_"
       gradientUnits="userSpaceOnUse"
       x1="295.5205"
       y1="346.8613"
       x2="183.018"
       y2="346.8613"><stop
         offset="0"
         style="stop-color:#2863dd"
         id="stop8" /><stop
         offset="1"
         style="stop-color:#110099"
         id="stop10" /></linearGradient><path
       fill="url(#SVGID_1_)"
       d="M183.438,354.474c0,8.108,6.301,14.772,14.006,14.772h83.635c7.717,0,14.023-6.664,14.023-14.772   v-29.997H183.438V354.474z"
       id="path12"
       style="fill:#c4170c;fill-opacity:1" /><linearGradient
       id="SVGID_2_"
       gradientUnits="userSpaceOnUse"
       x1="295.5205"
       y1="159.5688"
       x2="183.018"
       y2="159.5689"><stop
         offset="0"
         style="stop-color:#2863dd"
         id="stop15" /><stop
         offset="1"
         style="stop-color:#110099"
         id="stop17" /></linearGradient><path
       fill="url(#SVGID_2_)"
       d="M281.079,6.588h-83.635c-7.705,0-14.006,6.631-14.006,14.75v291.211h111.664V21.338   C295.103,13.219,288.796,6.588,281.079,6.588z M279.321,96.452c0,3.43-2.67,6.252-5.926,6.252h-65.429   c-3.272,0-5.931-2.822-5.931-6.252V58.228c0-3.44,2.658-6.262,5.931-6.262h65.429c3.256,0,5.926,2.822,5.926,6.262V96.452z"
       id="path19"
       style="fill:#c4170c;fill-opacity:1" /><linearGradient
       id="SVGID_3_"
       gradientUnits="userSpaceOnUse"
       x1="295.5205"
       y1="77.2202"
       x2="183.018"
       y2="77.2202"><stop
         offset="0"
         style="stop-color:#2863dd"
         id="stop22" /><stop
         offset="1"
         style="stop-color:#110099"
         id="stop24" /></linearGradient><path
       fill="url(#SVGID_3_)"
       d="M265.657,71.75h-49.599c-2.871,0-5.188,2.432-5.188,5.471c0,3.017,2.316,5.47,5.188,5.47h49.599   c2.877,0,5.188-2.454,5.188-5.47C270.845,74.182,268.534,71.75,265.657,71.75z"
       id="path26"
       style="fill:#c4170c;fill-opacity:1" /></g><g
     style="fill:#000000;fill-opacity:0.11372549"
     id="g4202"><path
       style="fill:#000000;fill-opacity:0.11372549"
       d="M 98.398438 53.853516 L 98.398438 285.59961 L 160.81641 285.59961 L 160.81641 53.853516 L 98.398438 53.853516 z "
       id="path4204" /><path
       style="fill:#000000;fill-opacity:0.11372549"
       d="M 98.398438 296.58203 L 98.398438 325.0293 L 160.81641 325.0293 L 160.81641 296.58203 L 98.398438 296.58203 z "
       id="path4206" /><path
       style="fill:#000000;fill-opacity:0.11372549"
       d="M 98.398438 336.00195 L 98.398438 368.49609 L 146.00195 368.49609 C 154.14695 368.49609 160.81445 361.46391 160.81445 352.87891 L 160.81445 336.00195 L 98.398438 336.00195 z "
       id="path4208" /><path
       style="fill:#000000;fill-opacity:0.11372549"
       d="M 98.398438 5.828125 L 98.398438 41.664062 L 160.81445 41.664062 L 160.81445 21.435547 C 160.81545 12.839547 154.14595 5.828125 146.00195 5.828125 L 98.398438 5.828125 z "
       id="path4210" /></g><g
     style="fill:#000000;fill-opacity:0.11372549"
     id="g4236"><linearGradient
       y2="346.8613"
       x2="183.018"
       y1="346.8613"
       x1="295.5205"
       gradientUnits="userSpaceOnUse"
       id="linearGradient4238"><stop
         id="stop4240"
         style="stop-color:#2863dd"
         offset="0" /><stop
         id="stop4242"
         style="stop-color:#110099"
         offset="1" /></linearGradient><path
       style="fill:#000000;fill-opacity:0.11372549"
       d="M 239.27148 324.47656 L 239.27148 369.24609 L 281.07812 369.24609 C 288.79512 369.24609 295.10156 362.58261 295.10156 354.47461 L 295.10156 324.47656 L 239.27148 324.47656 z "
       id="path4244" /><linearGradient
       y2="159.5689"
       x2="183.018"
       y1="159.5688"
       x1="295.5205"
       gradientUnits="userSpaceOnUse"
       id="linearGradient4246"><stop
         id="stop4248"
         style="stop-color:#2863dd"
         offset="0" /><stop
         id="stop4250"
         style="stop-color:#110099"
         offset="1" /></linearGradient><path
       style="fill:#000000;fill-opacity:0.11372549"
       d="M 239.27148 6.5878906 L 239.27148 51.966797 L 273.39453 51.966797 C 276.65053 51.966797 279.32031 54.788516 279.32031 58.228516 L 279.32031 96.451172 C 279.32031 99.881172 276.65053 102.70313 273.39453 102.70312 L 239.27148 102.70312 L 239.27148 312.54883 L 295.10156 312.54883 L 295.10156 21.337891 C 295.10256 13.218891 288.79512 6.5878906 281.07812 6.5878906 L 239.27148 6.5878906 z "
       id="path4252" /><linearGradient
       y2="77.2202"
       x2="183.018"
       y1="77.2202"
       x1="295.5205"
       gradientUnits="userSpaceOnUse"
       id="linearGradient4254"><stop
         id="stop4256"
         style="stop-color:#2863dd"
         offset="0" /><stop
         id="stop4258"
         style="stop-color:#110099"
         offset="1" /></linearGradient><path
       style="fill:#000000;fill-opacity:0.11372549"
       d="M 239.27148 71.75 L 239.27148 82.691406 L 265.65625 82.691406 C 268.53325 82.691406 270.8457 80.236703 270.8457 77.220703 C 270.8457 74.181703 268.53325 71.75 265.65625 71.75 L 239.27148 71.75 z "
       id="path4260" /></g><path
     style="fill:#000000;fill-opacity:0.11372549"
     d="M 401.61914 0 C 400.85914 0 400.1228 0.075796865 399.3418 0.21679688 L 367.44336 6.15625 L 372.78906 38.052734 L 400.68555 32.873047 C 400.86192 32.840547 401.03863 32.828996 401.21094 32.833984 C 402.41708 32.868902 403.47339 33.784672 403.68164 35.076172 L 404.50586 40.101562 C 404.76686 41.566564 403.81283 42.977281 402.42383 43.238281 L 374.52734 48.427734 L 420.68945 323.87891 L 448.48242 318.71289 C 448.65867 318.68177 448.8336 318.66806 449.00586 318.67383 C 450.21165 318.7142 451.27163 319.62452 451.5 320.91602 L 452.34766 325.91992 C 452.58666 327.38492 451.65319 328.80684 450.24219 329.08984 L 422.42773 334.25195 L 427.29297 363.2832 L 459.07617 357.37109 C 466.21717 356.05809 471.03534 348.81983 469.77734 341.29883 L 414.60156 11.470703 C 413.49356 4.7747033 407.87014 -2.3684758e-15 401.61914 0 z "
     id="path4271" /><path
     style="fill:#000000;fill-opacity:0.11372549"
     d="M 10.179688 406.2207 C 4.7540072 406.2207 0.31546448 410.70997 0.02734375 416.36523 L 498.42383 416.36523 C 498.13623 410.71 493.70583 406.2207 488.26953 406.2207 L 10.179688 406.2207 z "
     id="path4274" /></svg>