<?xml version="1.0" encoding="UTF-8" standalone="no"?>
<!-- Generator: Adobe Illustrator 16.0.0, SVG Export Plug-In . SVG Version: 6.00 Build 0)  -->

<svg
   xmlns:osb="http://www.openswatchbook.org/uri/2009/osb"
   xmlns:dc="http://purl.org/dc/elements/1.1/"
   xmlns:cc="http://creativecommons.org/ns#"
   xmlns:rdf="http://www.w3.org/1999/02/22-rdf-syntax-ns#"
   xmlns:svg="http://www.w3.org/2000/svg"
   xmlns="http://www.w3.org/2000/svg"
   xmlns:xlink="http://www.w3.org/1999/xlink"
   xmlns:sodipodi="http://sodipodi.sourceforge.net/DTD/sodipodi-0.dtd"
   xmlns:inkscape="http://www.inkscape.org/namespaces/inkscape"
   version="1.1"
   id="レイヤー_1"
   x="0px"
   y="0px"
   width="128px"
   height="128px"
   viewBox="0 0 128 128"
   enable-background="new 0 0 128 128"
   xml:space="preserve"
   inkscape:version="0.91 r13725"
   sodipodi:docname="pagina-construcao.svg"><metadata
     id="metadata44"><rdf:RDF><cc:Work
         rdf:about=""><dc:format>image/svg+xml</dc:format><dc:type
           rdf:resource="http://purl.org/dc/dcmitype/StillImage" /></cc:Work></rdf:RDF></metadata><defs
     id="defs42"><linearGradient
       id="linearGradient5588"
       osb:paint="solid"><stop
         style="stop-color:#dddddd;stop-opacity:0.70760232;"
         offset="0"
         id="stop5590" /></linearGradient><defs
       id="defs15"><path
         id="SVGID_1_"
         d="M 125.83,75.35 C 133.64,45.3 116.91,16.21 87.55,9.86 24.23,-3.83 -3.89,53.75 0.75,95.17 c 0,13.81 28.22,25.02 63.02,25.02 32.63,0 59.45,-9.86 62.69,-22.47 0.21,-0.84 0.32,-1.7 0.32,-2.56 0,-6.56 -4.13,-7.55 -0.95,-19.81 z"
         inkscape:connector-curvature="0" /></defs><linearGradient
       id="SVGID_2_"
       gradientUnits="userSpaceOnUse"
       x1="68.605499"
       y1="65.350601"
       x2="82.306503"
       y2="10.2418"><stop
         offset="0"
         style="stop-color:#FCC21B"
         id="stop19" /><stop
         offset="1"
         style="stop-color:#42ADE7"
         id="stop21" /></linearGradient><clipPath
       id="SVGID_3_"><use
         xlink:href="#SVGID_1_"
         overflow="visible"
         id="use26"
         style="overflow:visible"
         x="0"
         y="0"
         width="100%"
         height="100%" /></clipPath></defs><sodipodi:namedview
     pagecolor="#ffffff"
     bordercolor="#666666"
     borderopacity="1"
     objecttolerance="10"
     gridtolerance="10"
     guidetolerance="10"
     inkscape:pageopacity="0"
     inkscape:pageshadow="2"
     inkscape:window-width="1920"
     inkscape:window-height="1024"
     id="namedview40"
     showgrid="false"
     inkscape:zoom="1.84375"
     inkscape:cx="-195.79661"
     inkscape:cy="20.610169"
     inkscape:window-x="0"
     inkscape:window-y="30"
     inkscape:window-maximized="1"
     inkscape:current-layer="レイヤー_1" /><g
     id="g5606"
     transform="matrix(-1,0,0,1,127.99891,0)"><use
       height="100%"
       width="100%"
       y="0"
       x="0"
       style="overflow:visible;opacity:0.98999999;fill:#dddddd;fill-opacity:0.44736843;stroke:#cccccc;stroke-opacity:0.8"
       id="use23"
       overflow="visible"
       xlink:href="#SVGID_1_" /><path
       style="fill:#444444;fill-opacity:1;stroke:#333333;stroke-opacity:1"
       inkscape:connector-curvature="0"
       id="path28"
       d="m 45.92,102.89 c 3.51,1.14 6.45,3.6 9.29,5.92 3.33,2.85 7.11,4.29 11.54,3.88 3.77,-0.35 7.42,-2.04 9.8,-5.17 6.58,-8.68 1.86,-20.47 0.03,-23.73 C 72.6,77.15 66.56,72.15 59.72,69.35 56.07,67.82 51.57,66.68 47.33,66.49 37.21,65.91 25.43,69.56 18.27,79.97 c -5.42,7.64 -6.66,20.2 2.64,24.37 3.04,1.36 6.48,1.78 9.63,0.54 4.1,-1.63 8.68,-3.12 13.16,-2.49 0.76,0.09 1.5,0.27 2.22,0.5 z" /><path
       style="fill:#ffffff"
       inkscape:connector-curvature="0"
       id="path30"
       d="M 90.24,51.34 C 88.62,60.25 80.63,66.26 72.41,64.76 64.17,63.26 58.82,54.82 60.46,45.91 62.08,37 70.06,31 78.29,32.5 86.52,34 91.87,42.43 90.24,51.34 Z" /><path
       style="fill:#ffffff"
       inkscape:connector-curvature="0"
       id="path32"
       d="M 47.9,47.75 C 44.63,55.91 36.47,60.32 29.69,57.6 22.88,54.88 20.03,46.06 23.31,37.9 c 3.27,-8.16 11.41,-12.57 18.21,-9.85 6.79,2.72 9.64,11.55 6.38,19.7 z" /><path
       style="fill:#444444;fill-opacity:1"
       inkscape:connector-curvature="0"
       id="path34"
       d="m 39.76,44.65 c -0.96,2.92 -3.75,4.68 -6.24,3.94 -2.49,-0.74 -3.72,-3.71 -2.76,-6.63 0.95,-2.92 3.74,-4.69 6.23,-3.94 2.48,0.74 3.72,3.71 2.77,6.63" /><path
       style="fill:#444444;fill-opacity:1"
       inkscape:connector-curvature="0"
       id="path36"
       d="m 78.75,49.62 c -0.39,3.32 -2.97,5.79 -5.78,5.54 -2.8,-0.25 -4.76,-3.15 -4.38,-6.45 0.38,-3.31 2.98,-5.8 5.78,-5.55 2.8,0.26 4.76,3.15 4.38,6.46" /><path
       d="m 109.26,85.9 c -0.16,-5.26 -5.42,-13.74 -6.4,-13.85 -1.02,-0.06 -5.29,6.54 -5.88,13.27 -0.55,4.83 2.18,8.27 6.02,8.23 4.23,-0.04 6.33,-2.93 6.26,-7.65 z"
       id="path38"
       inkscape:connector-curvature="0"
       style="fill:#ffffff" /></g></svg>