<?xml version="1.0" encoding="UTF-8" standalone="no"?>
<!-- Generator: Adobe Illustrator 21.0.0, SVG Export Plug-In . SVG Version: 6.00 Build 0)  -->

<svg
   xmlns:dc="http://purl.org/dc/elements/1.1/"
   xmlns:cc="http://creativecommons.org/ns#"
   xmlns:rdf="http://www.w3.org/1999/02/22-rdf-syntax-ns#"
   xmlns:svg="http://www.w3.org/2000/svg"
   xmlns="http://www.w3.org/2000/svg"
   xmlns:sodipodi="http://sodipodi.sourceforge.net/DTD/sodipodi-0.dtd"
   xmlns:inkscape="http://www.inkscape.org/namespaces/inkscape"
   version="1.1"
   id="Layer_1"
   x="0px"
   y="0px"
   viewBox="0 0 200 200"
   xml:space="preserve"
   inkscape:version="0.91 r13725"
   sodipodi:docname="esic.svg"
   width="200"
   height="200"><metadata
     id="metadata56"><rdf:RDF><cc:Work
         rdf:about=""><dc:format>image/svg+xml</dc:format><dc:type
           rdf:resource="http://purl.org/dc/dcmitype/StillImage" /><dc:title></dc:title></cc:Work></rdf:RDF></metadata><defs
     id="defs54" /><sodipodi:namedview
     pagecolor="#ffffff"
     bordercolor="#666666"
     borderopacity="1"
     objecttolerance="10"
     gridtolerance="10"
     guidetolerance="10"
     inkscape:pageopacity="0"
     inkscape:pageshadow="2"
     inkscape:window-width="1920"
     inkscape:window-height="1017"
     id="namedview52"
     showgrid="false"
     inkscape:zoom="1.84375"
     inkscape:cx="54.423166"
     inkscape:cy="117.86091"
     inkscape:window-x="0"
     inkscape:window-y="30"
     inkscape:window-maximized="1"
     inkscape:current-layer="Layer_1" /><style
     type="text/css"
     id="style3">
	.st0{fill:#EFF2FA;}
	.st1{fill:#D7DEED;}
	.st2{fill:#FF6464;}
	.st3{fill:#FFE182;}
	.st4{fill:#A5D76E;}
	.st5{fill:#00D2FF;}
	.st6{fill:#C7CFE2;}
	.st7{fill:none;stroke:#A5D76E;stroke-width:9;stroke-miterlimit:10;}
</style><g
     id="g3384"
     transform="matrix(1.0090816,0,0,1.0097137,-237.13267,-176.29458)"><path
       d="m 239.5,268.9 c 0,20.4 1.4,30.2 10.7,48.7 1,2.2 3.9,6.5 3.9,8.1 -0.2,1.7 -2.8,7.8 -3.2,9.2 -2.3,6.2 -12.4,28.1 -0.2,28.1 5.8,0 22.1,-6.3 29.2,-8.7 4.5,-1.5 3.3,-0.2 8.9,2.6 5.8,2.9 11.7,6 18.3,7.7 47.5,12.3 91,-7.3 112.4,-49.9 5.4,-10.9 8.5,-23.4 9.2,-36.3 l 0,-9.7 c -0.6,-12.5 -3.6,-24.8 -8.9,-35.4 -2.8,-5.4 -4.8,-9.2 -8.1,-14 -3.3,-4.7 -6.5,-8.3 -10.6,-12.5 -4,-4 -7.3,-6.9 -12,-10.3 -5,-3.6 -8.4,-5.3 -14,-8.2 -10.9,-5.4 -23.4,-8.5 -36.4,-9.2 l -9.7,0 c -12.5,0.6 -24.8,3.6 -35.4,8.9 -5.4,2.8 -9.2,4.8 -14,8.1 -22.6,16.1 -40.1,44.8 -40.1,72.8 z"
       class="st7"
       id="XMLID_3_"
       inkscape:connector-curvature="0"
       style="fill:none;stroke:#a5d76e;stroke-width:9;stroke-miterlimit:10" /><path
       d="m 331.1,257.6 c -17.2,4 -13.1,22.6 -13.1,40.2 0,7.3 -1.1,19.2 1.9,24.9 2.8,5 9.6,9.7 17.6,7.9 16.4,-3.6 12.5,-24.1 12.5,-40.2 0,-7.2 1.1,-19.2 -1.9,-24.9 -2.6,-4.9 -9.5,-9.6 -17,-7.9 z"
       class="st7"
       id="XMLID_2_"
       inkscape:connector-curvature="0"
       style="fill:none;stroke:#a5d76e;stroke-width:9;stroke-miterlimit:10" /><path
       d="m 331,216.8 c -21.6,4.8 -14.1,36.2 6.8,31.6 7.3,-1.6 14.3,-9.5 12.1,-19.3 -1.8,-7.5 -9.5,-14.4 -18.9,-12.3 z"
       class="st7"
       id="XMLID_1_"
       inkscape:connector-curvature="0"
       style="fill:none;stroke:#a5d76e;stroke-width:9;stroke-miterlimit:10" /></g></svg>