<?xml version="1.0" encoding="UTF-8" standalone="no"?>
<!-- Created with Inkscape (http://www.inkscape.org/) -->

<svg
   xmlns:dc="http://purl.org/dc/elements/1.1/"
   xmlns:cc="http://creativecommons.org/ns#"
   xmlns:rdf="http://www.w3.org/1999/02/22-rdf-syntax-ns#"
   xmlns:svg="http://www.w3.org/2000/svg"
   xmlns="http://www.w3.org/2000/svg"
   xmlns:sodipodi="http://sodipodi.sourceforge.net/DTD/sodipodi-0.dtd"
   xmlns:inkscape="http://www.inkscape.org/namespaces/inkscape"
   width="60"
   height="50"
   viewBox="0 0 60 50.000001"
   id="svg2"
   version="1.1"
   inkscape:version="0.91 r13725"
   sodipodi:docname="logo-white.svg">
  <defs
     id="defs4" />
  <sodipodi:namedview
     id="base"
     pagecolor="#ffffff"
     bordercolor="#666666"
     borderopacity="1.0"
     inkscape:pageopacity="0.0"
     inkscape:pageshadow="2"
     inkscape:zoom="8"
     inkscape:cx="7.635121"
     inkscape:cy="20.109187"
     inkscape:document-units="px"
     inkscape:current-layer="layer1"
     showgrid="false"
     units="px"
     inkscape:window-width="1920"
     inkscape:window-height="1024"
     inkscape:window-x="0"
     inkscape:window-y="30"
     inkscape:window-maximized="1" />
  <metadata
     id="metadata7">
    <rdf:RDF>
      <cc:Work
         rdf:about="">
        <dc:format>image/svg+xml</dc:format>
        <dc:type
           rdf:resource="http://purl.org/dc/dcmitype/StillImage" />
        <dc:title />
      </cc:Work>
    </rdf:RDF>
  </metadata>
  <g
     inkscape:label="Camada 1"
     inkscape:groupmode="layer"
     id="layer1"
     transform="translate(0,-1002.3622)">
    <g
       style="font-style:normal;font-variant:normal;font-weight:normal;font-stretch:normal;font-size:70.71499634px;line-height:125%;font-family:Pricedown;-inkscape-font-specification:'Pricedown, Normal';text-align:start;letter-spacing:0px;word-spacing:0px;writing-mode:lr-tb;text-anchor:start;fill:#ffffff;fill-opacity:1;stroke:none;stroke-width:1px;stroke-linecap:butt;stroke-linejoin:miter;stroke-opacity:1"
       id="text4136">
      <path
         d="m 16.92285,1012.85 -2.8286,0 0,4.455 2.8286,0 0,-4.455 z m 5.869344,38.0446 q -1.98002,0 -3.81861,-1.2021 -2.050734,-1.4143 -2.050734,-3.2529 l 0,-20.1538 -2.8286,0 0,13.4359 -11.6679747,0 0,-35.8525 20.3659187,0 q 5.79863,0 5.79863,4.5257 l 0,9.6173 q 0,2.6871 -2.899315,3.7479 2.899315,1.0607 2.899315,3.7479 l 0,16.4766 14.567289,0 0,8.91 -20.365919,0 z"
         style="fill:#ffffff"
         id="path4136" />
      <path
         d="m 31.568588,1039.7217 0,-17.9616 q 0,-4.4551 5.79863,-4.4551 l 8.697945,0 0,-4.455 -2.8286,0 0,2.1921 -11.667975,0 0,-6.6472 q 0,-4.5257 5.79863,-4.5257 l 14.567289,0 q 5.79863,0 5.79863,4.5257 l 0,13.3652 q 0,4.455 -5.79863,4.5257 l -8.697944,0 0,4.5258 2.8286,0 0,-2.2629 11.667974,0 0,11.173 -26.164549,0 z"
         style="fill:#ffffff"
         id="path4138" />
    </g>
  </g>
</svg>
