<?xml version="1.0" encoding="UTF-8" standalone="no"?>
<!-- Created with Inkscape (http://www.inkscape.org/) -->

<svg
   xmlns:dc="http://purl.org/dc/elements/1.1/"
   xmlns:cc="http://creativecommons.org/ns#"
   xmlns:rdf="http://www.w3.org/1999/02/22-rdf-syntax-ns#"
   xmlns:svg="http://www.w3.org/2000/svg"
   xmlns="http://www.w3.org/2000/svg"
   xmlns:sodipodi="http://sodipodi.sourceforge.net/DTD/sodipodi-0.dtd"
   xmlns:inkscape="http://www.inkscape.org/namespaces/inkscape"
   width="220"
   height="50"
   viewBox="0 0 220 50.000001"
   id="svg2"
   version="1.1"
   inkscape:version="0.91 r13725"
   sodipodi:docname="logo-siged.svg">
  <defs
     id="defs4" />
  <sodipodi:namedview
     id="base"
     pagecolor="#ffffff"
     bordercolor="#666666"
     borderopacity="1.0"
     inkscape:pageopacity="0.0"
     inkscape:pageshadow="2"
     inkscape:zoom="2.9321563"
     inkscape:cx="107.3816"
     inkscape:cy="-0.48639311"
     inkscape:document-units="px"
     inkscape:current-layer="layer1"
     showgrid="false"
     units="px"
     inkscape:window-width="1920"
     inkscape:window-height="1017"
     inkscape:window-x="0"
     inkscape:window-y="30"
     inkscape:window-maximized="1" />
  <metadata
     id="metadata7">
    <rdf:RDF>
      <cc:Work
         rdf:about="">
        <dc:format>image/svg+xml</dc:format>
        <dc:type
           rdf:resource="http://purl.org/dc/dcmitype/StillImage" />
        <dc:title />
      </cc:Work>
    </rdf:RDF>
  </metadata>
  <g
     inkscape:label="Camada 1"
     inkscape:groupmode="layer"
     id="layer1"
     transform="translate(0,-1002.3622)">
    <g
       id="g4151">
      <path
         sodipodi:nodetypes="cccccscscccccssscscccs"
         d="m 16.92285,1012.85 -2.8286,0 0,4.455 2.8286,0 z m 5.869344,38.0446 c -1.320013,0 -2.592883,-0.4007 -3.81861,-1.2021 -1.367156,-0.9429 -2.050734,-2.0272 -2.050734,-3.2529 l 0,-20.1538 -2.8286,0 0,13.4359 -11.6679747,0 0,-35.8525 20.3659187,0 c 3.865753,0 5.79863,1.5086 5.79863,4.5257 l 0,9.6173 c 0,1.7914 -0.966438,3.0407 -2.899315,3.7479 1.932877,0.7071 2.899315,1.9564 2.899315,3.7479 l 0,16.4766 189.887626,0 0,8.91 z"
         style="font-style:normal;font-variant:normal;font-weight:normal;font-stretch:normal;font-size:medium;line-height:125%;font-family:Pricedown;-inkscape-font-specification:'Pricedown, Normal';text-align:start;letter-spacing:0px;word-spacing:0px;writing-mode:lr-tb;text-anchor:start;fill:#444444;fill-opacity:1;stroke:none;stroke-width:1px;stroke-linecap:butt;stroke-linejoin:miter;stroke-opacity:1"
         id="path4136"
         inkscape:connector-curvature="0" />
      <path
         d="m 31.568588,1039.7217 0,-17.9616 q 0,-4.4551 5.79863,-4.4551 l 8.697945,0 0,-4.455 -2.8286,0 0,2.1921 -11.667975,0 0,-6.6472 q 0,-4.5257 5.79863,-4.5257 l 14.567289,0 q 5.79863,0 5.79863,4.5257 l 0,13.3652 q 0,4.455 -5.79863,4.5257 l -8.697944,0 0,4.5258 2.8286,0 0,-2.2629 11.667974,0 0,11.173 -26.164549,0 z"
         style="font-style:normal;font-variant:normal;font-weight:normal;font-stretch:normal;font-size:medium;line-height:125%;font-family:Pricedown;-inkscape-font-specification:'Pricedown, Normal';text-align:start;letter-spacing:0px;word-spacing:0px;writing-mode:lr-tb;text-anchor:start;fill:#444444;fill-opacity:1;stroke:none;stroke-width:1px;stroke-linecap:butt;stroke-linejoin:miter;stroke-opacity:1"
         id="path4138"
         inkscape:connector-curvature="0" />
      <rect
         rx="5"
         y="1002.8425"
         x="64.870941"
         height="36.738445"
         width="151.44591"
         id="rect4138"
         style="opacity:1;fill:#4892e7;fill-opacity:1" />
      <g
         id="text4140"
         style="font-style:normal;font-variant:normal;font-weight:bold;font-stretch:normal;font-size:38.46896744px;line-height:125%;font-family:Sansation;-inkscape-font-specification:'Sansation Bold';text-align:start;letter-spacing:0px;word-spacing:0px;writing-mode:lr-tb;text-anchor:start;fill:#ffffff;fill-opacity:1;stroke:none;stroke-width:1px;stroke-linecap:butt;stroke-linejoin:miter;stroke-opacity:1"
         transform="scale(1.1047867,0.90515209)">
        <path
           id="path4139"
           style=""
           d="m 91.057234,1114.957 0,4.2826 -13.449112,0 0,6.7622 12.810467,0 0,4.4517 -12.866818,0 0,7.0439 13.768434,0 0,4.3202 -18.65219,0 0,-26.8606 18.389219,0 z" />
        <path
           id="path4141"
           style=""
           d="m 95.490181,1140.8784 0,-4.1324 q 3.287143,1.3149 7.588609,1.3149 3.212,0 3.212,-2.0662 0,-1.9723 -2.16012,-1.9723 l -3.5689,0 q -6.010773,0 -6.010773,-5.9169 0,-6.1986 8.771973,-6.1986 3.71917,0 7.00631,1.1271 l 0,4.1324 q -3.28714,-1.3149 -7.13779,-1.3149 -4.038492,0 -4.038492,2.0662 0,1.9723 2.347962,1.9723 l 3.19322,0 q 6.57429,0 6.57429,5.9169 0,6.1986 -8.37752,6.1986 -4.113626,0 -7.400769,-1.1271 z" />
        <path
           id="path4143"
           style=""
           d="m 129.28201,1141.2541 q -2.44187,0.5635 -5.07159,0.5635 -10.51886,0 -10.51886,-10.2371 0,-9.4857 10.51886,-9.4857 2.62972,0 5.07159,0.5635 l 0,3.9445 q -2.44187,-0.5635 -4.69592,-0.5635 -5.91685,0 -5.91685,5.5412 0,6.2926 5.91685,6.2926 2.25405,0 4.69592,-0.5636 l 0,3.9446 z" />
        <path
           id="path4145"
           style=""
           d="m 136.64522,1131.8811 q 0,6.1798 4.78983,6.1798 4.78984,0 4.78984,-6.1798 0,-6.0296 -4.78984,-6.0296 -4.78983,0 -4.78983,6.0296 z m -4.97768,0.075 q 0,-9.9178 9.76751,-9.9178 9.76751,0 9.76751,9.9178 0,9.899 -9.76751,9.899 -9.72994,0 -9.76751,-9.899 z" />
        <path
           id="path4147"
           style=""
           d="m 159.97454,1114.957 0,26.8606 -4.97768,0 0,-26.8606 4.97768,0 z" />
        <path
           id="path4149"
           style=""
           d="m 163.75005,1135.6754 q 0,-5.8793 8.56536,-5.8793 2.00985,0 4.01971,0.3756 l 0,-1.4839 q 0,-2.6485 -3.81309,-2.6485 -3.23079,0 -7.17536,0.9392 l 0,-3.9445 q 3.94457,-0.9392 7.17536,-0.9392 8.79076,0 8.79076,6.4991 l 0,13.2237 -2.89269,0 -1.76566,-1.7656 q -2.57336,1.7656 -5.67267,1.7656 -7.23172,0 -7.23172,-6.1422 z m 12.58507,-2.1226 q -1.87837,-0.3757 -4.01971,-0.3757 -3.58768,0 -3.58768,2.4419 0,2.6297 3.00539,2.6297 2.47944,0 4.602,-1.5402 l 0,-3.1557 z" />
      </g>
    </g>
  </g>
</svg>
