<?xml version="1.0" encoding="utf-8"?>
<!-- Generator: Adobe Illustrator 16.0.0, SVG Export Plug-In . SVG Version: 6.00 Build 0)  -->
<!DOCTYPE svg PUBLIC "-//W3C//DTD SVG 1.1//EN" "http://www.w3.org/Graphics/SVG/1.1/DTD/svg11.dtd">
<svg version="1.1" xmlns="http://www.w3.org/2000/svg" xmlns:xlink="http://www.w3.org/1999/xlink" x="0px" y="0px"
	 width="446.875px" height="406.604px" viewBox="0 0 446.875 406.604" enable-background="new 0 0 446.875 406.604"
	 xml:space="preserve">
<g id="Layer_14" display="none">
	<g id="Layer_10" display="inline">
		<rect x="176.02" y="268.772" fill="#333333" width="94.542" height="23.334"/>
		<rect x="181.781" y="207.094" fill="#333333" width="83.022" height="63.762"/>
		<rect x="183.448" y="288.022" fill="#333333" width="14.335" height="91.02"/>
		<rect x="248.272" y="288.022" fill="#333333" width="14.335" height="91.02"/>
	</g>
	<g id="Layer_5" display="inline">
		<rect x="320.5" y="181.763" width="8.238" height="43.305"/>
		<g>
			<rect x="327.252" y="187.892" fill="#FFFFFF" width="1.463" height="0.717"/>
		</g>
		<g>
			<rect x="325.663" y="191.809" fill="#FFFFFF" width="3.052" height="0.716"/>
		</g>
		<g>
			<path d="M333.219,191.411l0.716,1.68h-1.431L333.219,191.411 M333.219,190.314l-1.365,3.207h2.731L333.219,190.314
				L333.219,190.314z"/>
		</g>
		<rect x="331.854" y="193.808" width="2.731" height="26.188"/>
		<g>
			<rect x="325.711" y="184.263" fill="#FFFFFF" width="3.051" height="0.716"/>
		</g>
		<g>
			<rect x="327.275" y="195.459" fill="#FFFFFF" width="1.463" height="0.716"/>
		</g>
		<g>
			<rect x="327.279" y="203.054" fill="#FFFFFF" width="1.463" height="0.716"/>
		</g>
		<g>
			<rect x="327.275" y="210.593" fill="#FFFFFF" width="1.463" height="0.716"/>
		</g>
		<g>
			<rect x="325.687" y="199.354" fill="#FFFFFF" width="3.052" height="0.717"/>
		</g>
		<g>
			<rect x="325.687" y="206.9" fill="#FFFFFF" width="3.052" height="0.716"/>
		</g>
		<g>
			<rect x="124.676" y="214.64" fill="#FFFFFF" width="3.052" height="0.716"/>
		</g>
		<rect x="191.687" y="283.774" width="19.245" height="77.666"/>
		<rect x="188.022" y="173.664" fill="#7BAD41" width="70.832" height="82.667"/>
		<rect x="185.883" y="361.44" fill="#F3F3F3" width="26.295" height="17.998"/>
		<rect x="234.696" y="361.44" fill="#F3F3F3" width="25.742" height="17.998"/>
		<rect x="235.692" y="283.774" width="19.246" height="77.666"/>
		<rect x="175.937" y="218.208" fill="#D6BA92" width="16.75" height="10.397"/>
		<rect x="254.688" y="218.208" fill="#D6BA92" width="16.75" height="10.397"/>
	</g>
	<g id="Layer_9" display="inline">
		<rect x="185.883" y="264.105" width="74.554" height="23.001"/>
	</g>
	<g id="books" display="inline">
		<g>
			<path fill="#F3F3F3" d="M135.686,216.711H88.845v11h46.841c3.914,0,7.085-2.239,7.085-5v-1
				C142.771,218.95,139.6,216.711,135.686,216.711z"/>
		</g>
		<path fill="#333333" d="M135.686,215.816h-47.69v1.495h3.257v0.005h44.434c3.438,0,6.236,1.907,6.236,4.25v1
			c0,2.343-2.798,4.25-6.236,4.25H91.252v0.005h-3.257v1.495h47.69c4.375,0,7.935-2.58,7.935-5.75v-1
			C143.621,218.396,140.061,215.816,135.686,215.816z"/>
		<g>
			<path fill="#333333" d="M132.613,203.962H91.246v11h41.367c3.457,0,6.258-2.239,6.258-5v-1
				C138.871,206.201,136.07,203.962,132.613,203.962z"/>
		</g>
		<path fill="#F3F3F3" d="M132.613,203.068H90.496v1.495h2.876v0.005h39.241c3.037,0,5.508,1.907,5.508,4.25v1
			c0,2.343-2.471,4.25-5.508,4.25H93.372v0.005h-2.876v1.495h42.117c3.864,0,7.008-2.58,7.008-5.75v-1
			C139.621,205.647,136.477,203.068,132.613,203.068z"/>
	</g>
	<g id="head" display="inline">
		<g id="Layer_8">
			<path fill="#D6BA92" d="M198.965,123.772c0,0,0.001,2.334,0.584,4.917h46.583c0,0,1.417-1.417,0.917-4.083
				s-1.334-22.25-12.167-22s-17.751,5.333-17.667,5.667S197.715,108.772,198.965,123.772z"/>
		</g>
		<path d="M199.05,124.271c0,0-0.001-11,9.666-12.167s17.834-6.5,17.834-6.5s14.07-7.278,18.475,13.377
			c0.066,0.312,0.128,0.631,0.191,0.956c1.495,7.667,1.939,6.152,1.939,6.152s4.727-11.818,3.061-23.152
			c-1.666-11.333-9.833-6.5-9.833-6.5s-13.334-18-37.167,0.667c0,0-6.002,7.126-16.333,6.333c0,0,2.334,6.5,11.167,9.167
			C198.05,112.604,197.384,116.771,199.05,124.271z"/>
	</g>
	<g id="Layer_4" display="inline">
		<rect x="318.364" y="202.412" fill="#333333" width="19.334" height="26"/>
	</g>
	<g id="desk" display="inline">
		<rect x="19.783" y="228.605" fill="#333333" width="407.309" height="14.579"/>
		<polygon fill="#333333" points="69.888,228.605 69.888,252.167 69.888,388.604 95.107,388.604 95.107,252.167 344.092,252.167 
			344.092,388.604 368.092,388.604 368.092,252.167 368.092,228.605 		"/>
		<g>
			<path fill="#333333" d="M371.988,109.487c-8.014-7.669-20.727-7.39-28.396,0.624l29.02,27.771
				C380.28,129.869,380.002,117.156,371.988,109.487z"/>
		</g>
		<g>
			<path fill="#333333" d="M395.822,221.092c-0.015,2.576-2.276,4.651-5.052,4.636l-6.472-0.036
				c-2.774-0.016-5.013-2.116-4.999-4.693l0,0c0.014-2.576,2.276-4.652,5.052-4.636l6.472,0.036
				C393.599,216.415,395.837,218.516,395.822,221.092L395.822,221.092z"/>
			<path fill="#333333" d="M387.53,218.201c-7.913-0.044-14.354,4.41-14.384,9.95l28.656,0.16
				C401.833,222.771,395.443,218.245,387.53,218.201z"/>
		</g>
		<g>
			
				<rect x="386.621" y="103.983" transform="matrix(0.8846 -0.4664 0.4664 0.8846 -16.8885 196.0916)" fill="#333333" width="2.25" height="56.37"/>
			
				<rect x="390.159" y="102.117" transform="matrix(0.8846 -0.4664 0.4664 0.8846 -15.61 197.5264)" fill="#333333" width="2.25" height="56.37"/>
		</g>
		<g>
			
				<rect x="391.599" y="156.977" transform="matrix(0.9719 0.2353 -0.2353 0.9719 55.5987 -87.0807)" fill="#333333" width="2.25" height="64.954"/>
			
				<rect x="395.487" y="157.919" transform="matrix(0.972 0.2352 -0.2352 0.972 55.9009 -87.9342)" fill="#333333" width="2.251" height="64.954"/>
		</g>
		<path fill="#333333" d="M407.511,156.625c0,1.459-1.514,2.642-3.381,2.642h-4.488c-1.867,0-3.381-1.183-3.381-2.642l0,0
			c0-1.459,1.514-2.642,3.381-2.642h4.488C405.997,153.983,407.511,155.166,407.511,156.625L407.511,156.625z"/>
		<path fill="#333333" d="M377.511,113.676c-3.104,3.16-7.874,3.508-10.654,0.778l0,0c-2.781-2.731-2.518-7.507,0.587-10.668
			l3.968-4.037c3.104-3.161,7.874-3.51,10.654-0.778l0,0c2.779,2.73,2.518,7.507-0.587,10.666L377.511,113.676z"/>
	</g>
	<g id="computer" display="inline">
		<path fill="#333333" d="M285.688,199.346c0,4.868-4.262,8.815-9.52,8.815H166.705c-5.257,0-9.518-3.947-9.518-8.815V124.42
			c0-4.868,4.261-8.815,9.518-8.815h109.463c5.258,0,9.52,3.947,9.52,8.815V199.346z"/>
		<rect x="212.687" y="181.105" fill="#F3F3F3" width="21.5" height="43.829"/>
		<g>
			<text transform="matrix(1 0 0 1 206.0132 159.7559)" fill="#FFFFFF" font-family="'Myriad-Bold'" font-size="30.9227">[  ]</text>
			<path fill="#7BAD41" d="M226.231,149.934c-3.597-5.777-10.504-5.604-10.504-5.604s2.625,2.519,2.42,7.688s2.55,7.029,4.965,6.733
				c0.286-0.035,0.585-0.089,0.87-0.149c-0.318-5.774-4.544-11.347-4.544-11.347c3.901,3.016,5.84,10.312,6.005,10.958
				C225.82,157.979,229.656,155.433,226.231,149.934z"/>
		</g>
		<rect x="192.687" y="224.105" fill="#F3F3F3" width="62" height="4.5"/>
	</g>
	<g id="Layer_12" display="inline">
		<g>
			<circle fill="#333333" cx="309.688" cy="84.715" r="24.709"/>
		</g>
		<g>
			<path fill="#FFFFFF" d="M304.494,90.137l-7.967-4.956v-1.888l7.967-5.14v2.701l-5.941,3.285l5.941,3.387V90.137z"/>
			<path fill="#FFFFFF" d="M312.436,75.465l-4.188,17.648h-2.051l4.201-17.648H312.436z"/>
			<path fill="#FFFFFF" d="M322.359,85.182l-7.99,4.956v-2.598l5.953-3.387l-5.953-3.297v-2.701l7.99,5.14V85.182z"/>
		</g>
		<g>
			<polygon fill="#333333" points="293.508,102.6 291.455,113.147 301.32,107.874 			"/>
		</g>
		<g>
			<circle fill="#333333" cx="113.828" cy="161.439" r="22.838"/>
		</g>
		<g>
			<polygon fill="#333333" points="109.478,182.523 113.969,192.285 118.899,182.244 			"/>
		</g>
		<g>
			<g>
				
					<rect x="112.764" y="143.14" transform="matrix(0.2058 0.9786 -0.9786 0.2058 247.0202 16.7147)" fill="#FFFFFF" width="0.897" height="34.822"/>
			</g>
			<g>
				<path fill="#FFFFFF" d="M122.713,171.907l-0.891-0.105c0.006-0.049,0.541-4.945-2.167-7.987c-1.447-1.626-3.577-2.45-6.333-2.45
					c-2.761,0-4.914,0.828-6.4,2.461c-2.773,3.046-2.348,7.937-2.344,7.986l-0.893,0.085c-0.021-0.216-0.471-5.327,2.568-8.67
					c1.664-1.83,4.042-2.758,7.068-2.758c3.024,0,5.382,0.927,7.007,2.755C123.305,166.571,122.739,171.691,122.713,171.907z"/>
			</g>
			<g>
				<rect x="102.683" y="170.227" fill="#FFFFFF" width="2.839" height="2.839"/>
				<path fill="#FFFFFF" d="M105.971,173.514h-3.736v-3.735h3.736V173.514z M103.131,172.618h1.942v-1.942h-1.942V172.618z"/>
			</g>
			<g>
				<rect x="111.792" y="159.498" fill="#FFFFFF" width="2.839" height="2.839"/>
				<path fill="#FFFFFF" d="M115.08,162.785h-3.735v-3.735h3.735V162.785z M112.241,161.888h1.942v-1.942h-1.942V161.888z"/>
			</g>
			<g>
				<rect x="120.848" y="170.227" fill="#FFFFFF" width="2.84" height="2.839"/>
				<path fill="#FFFFFF" d="M124.136,173.514H120.4v-3.735h3.736V173.514z M121.297,172.618h1.942v-1.942h-1.942V172.618z"/>
			</g>
			<g>
				
					<rect x="95.771" y="163.201" transform="matrix(0.9855 -0.1694 0.1694 0.9855 -26.4138 18.7603)" fill="#FFFFFF" width="1.885" height="1.885"/>
				<path fill="#FFFFFF" d="M95.579,165.75l-0.472-2.741l2.741-0.471l0.472,2.741L95.579,165.75z M96.143,163.74l0.167,0.974
					l0.974-0.167l-0.167-0.974L96.143,163.74z"/>
			</g>
			<g>
				
					<rect x="128.722" y="156.015" transform="matrix(0.9855 -0.1694 0.1694 0.9855 -24.7198 24.2396)" fill="#FFFFFF" width="1.885" height="1.885"/>
				<path fill="#FFFFFF" d="M128.529,158.564l-0.472-2.741l2.742-0.471l0.471,2.741L128.529,158.564z M129.093,156.554l0.167,0.974
					l0.974-0.167l-0.167-0.974L129.093,156.554z"/>
			</g>
			<path fill="#FFFFFF" d="M116.897,153.363l0.026-0.038l-0.055-0.004c-0.239-0.345-1.541-2.32-1.488-3.952l0.758,0.061l0.042-0.534
				l-0.783-0.063l0.09-1.119l-2.484-0.199l-0.09,1.118l-0.664-0.053l-0.043,0.535l0.687,0.055c-0.218,1.702-1.975,3.537-2.131,3.696
				l-0.028-0.002l0.01,0.021c-0.001,0.001-0.012,0.013-0.012,0.013l0.019,0.001l1.33,2.762l1.349,2.795l1.747-2.565l1.703-2.5
				l0.04,0.003C116.918,153.394,116.901,153.369,116.897,153.363z"/>
		</g>
	</g>
	<g id="cloud" display="inline">
		<circle fill="#333333" cx="155.939" cy="78.154" r="7.5"/>
		<circle fill="#333333" cx="177.152" cy="85.849" r="4.875"/>
		<path fill="#333333" d="M116.625,27.593c0,0,8.466-4.504,15.904-0.379c8.52,4.726,7.123,15.41,7.123,15.41
			s11.065,7.153,5.749,19.376c-5.596,12.868-18.386,7.143-18.386,7.143s-1.065,12.236-15.987,13.455S92.909,73.69,92.909,73.69
			S75.855,75.89,71.325,62c-4.529-13.89,2.434-23.557,9.956-25.347c0,0-2.734-15.781,16.957-18.386
			C114.444,16.124,116.625,27.593,116.625,27.593z"/>
	</g>
	<g id="Lightbulb" display="inline">
		<path fill="#FFFFFF" d="M107.479,71.317c0.626,0,1.133-0.29,1.133-0.647h-2.267C106.345,71.027,106.853,71.317,107.479,71.317z"/>
		<path fill="#FFFFFF" d="M115.808,51.722c0-4.589-3.72-8.31-8.309-8.31c-4.591,0-8.311,3.721-8.311,8.31
			c0,1.651,0.487,3.186,1.317,4.479h-0.009c0.547,1.315,1.193,2.266,1.193,2.266s1.113,1.538,1.194,3.379s0.668,2.186,0.668,2.186
			h3.946h3.945c0,0,0.586-0.344,0.668-2.186c0.08-1.841,1.194-3.379,1.194-3.379s0.646-0.951,1.192-2.266h-0.009
			C115.321,54.908,115.808,53.373,115.808,51.722z"/>
		<path fill="#FFFFFF" d="M110.898,65.234c0,0.253-0.181,0.458-0.404,0.458h-5.989c-0.225,0-0.405-0.205-0.405-0.458v-0.137
			c0-0.252,0.181-0.458,0.405-0.458h5.989c0.224,0,0.404,0.205,0.404,0.458V65.234z"/>
		<path fill="#FFFFFF" d="M110.535,66.63c0,0.253-0.162,0.458-0.361,0.458h-5.349c-0.199,0-0.36-0.205-0.36-0.458v-0.137
			c0-0.252,0.161-0.457,0.36-0.457h5.349c0.199,0,0.361,0.205,0.361,0.457V66.63z"/>
		<path fill="#FFFFFF" d="M110.535,68.087c0,0.252-0.162,0.457-0.361,0.457h-5.349c-0.199,0-0.36-0.205-0.36-0.457V67.95
			c0-0.253,0.161-0.458,0.36-0.458h5.349c0.199,0,0.361,0.205,0.361,0.458V68.087z"/>
		<polygon fill="#FFFFFF" points="104.747,68.889 106.325,70.386 108.693,70.386 110.21,68.889 		"/>
		<g id="Layer_16">
		</g>
		<line fill="none" stroke="#FFFFFF" stroke-miterlimit="10" x1="95.476" y1="48.903" x2="89.056" y2="45.175"/>
		<line fill="none" stroke="#FFFFFF" stroke-miterlimit="10" x1="99.583" y1="42.729" x2="94.337" y2="37.475"/>
		<line fill="none" stroke="#FFFFFF" stroke-miterlimit="10" x1="120.007" y1="48.792" x2="126.428" y2="45.063"/>
		<line fill="none" stroke="#FFFFFF" stroke-miterlimit="10" x1="115.808" y1="42.729" x2="121.054" y2="37.475"/>
		<line fill="none" stroke="#FFFFFF" stroke-miterlimit="10" x1="106.698" y1="40.948" x2="106.749" y2="33.524"/>
	</g>
</g>
<g id="Layer_14_copy">
	<g id="Layer_10_copy">
	</g>
	<g id="Layer_5_copy">
	</g>
	<g id="Layer_9_copy">
	</g>
	<g id="books_copy">
	</g>
	<g id="head_copy">
		<g id="Layer_8_copy">
		</g>
	</g>
	<g id="Layer_4_copy">
	</g>
	<g id="desk_copy">
	</g>
	<g id="computer_copy">
	</g>
	<g id="Layer_12_copy">
	</g>
	<g id="cloud_copy">
	</g>
	<g id="Lightbulb_copy">
		<g id="Layer_16_copy">
		</g>
		<g>
			<g>
				<rect x="171.414" y="275.132" fill="#333333" width="103.727" height="25.601"/>
			</g>
			<g>
				<rect x="177.734" y="207.462" fill="#333333" width="91.087" height="69.955"/>
			</g>
			<g>
				<rect x="179.563" y="296.252" fill="#333333" width="15.727" height="99.861"/>
			</g>
			<g>
				<rect x="250.685" y="296.252" fill="#333333" width="15.728" height="99.861"/>
			</g>
			<g>
				<rect x="329.929" y="179.671" width="9.038" height="47.511"/>
			</g>
			<g>
				<g>
					<rect x="337.336" y="186.395" fill="#FFFFFF" width="1.605" height="0.787"/>
				</g>
			</g>
			<g>
				<g>
					<rect x="335.593" y="190.692" fill="#FFFFFF" width="3.349" height="0.786"/>
				</g>
			</g>
			<g>
				<g>
					<path d="M343.883,190.256l0.785,1.844h-1.569L343.883,190.256 M343.883,189.052l-1.498,3.519h2.997L343.883,189.052
						L343.883,189.052z"/>
				</g>
			</g>
			<g>
				<rect x="342.385" y="192.886" width="2.997" height="28.731"/>
			</g>
			<g>
				<g>
					<rect x="335.646" y="182.413" fill="#FFFFFF" width="3.348" height="0.786"/>
				</g>
			</g>
			<g>
				<g>
					<rect x="337.362" y="194.698" fill="#FFFFFF" width="1.604" height="0.786"/>
				</g>
			</g>
			<g>
				<g>
					<rect x="337.366" y="203.029" fill="#FFFFFF" width="1.605" height="0.786"/>
				</g>
			</g>
			<g>
				<g>
					<rect x="337.362" y="211.301" fill="#FFFFFF" width="1.604" height="0.786"/>
				</g>
			</g>
			<g>
				<g>
					<rect x="335.619" y="198.971" fill="#FFFFFF" width="3.348" height="0.786"/>
				</g>
			</g>
			<g>
				<g>
					<rect x="335.619" y="207.25" fill="#FFFFFF" width="3.348" height="0.786"/>
				</g>
			</g>
			<g>
				<g>
					<rect x="115.083" y="215.741" fill="#FFFFFF" width="3.348" height="0.786"/>
				</g>
			</g>
			<g>
				<rect x="188.603" y="291.591" width="21.114" height="85.211"/>
			</g>
			<g>
				<rect x="184.582" y="170.785" fill="#7BAD41" width="77.712" height="90.697"/>
			</g>
			<g>
				<rect x="182.235" y="376.802" fill="#F3F3F3" width="28.849" height="19.746"/>
			</g>
			<g>
				<rect x="235.79" y="376.802" fill="#F3F3F3" width="28.242" height="19.746"/>
			</g>
			<g>
				<rect x="236.882" y="291.591" width="21.115" height="85.211"/>
			</g>
			<g>
				<rect x="171.323" y="219.656" fill="#D6BA92" width="18.377" height="11.408"/>
			</g>
			<g>
				<rect x="257.723" y="219.656" fill="#D6BA92" width="18.378" height="11.408"/>
			</g>
			<g>
				<rect x="182.235" y="270.012" width="81.796" height="25.235"/>
			</g>
			<g>
				<g>
					<path fill="#F3F3F3" d="M127.162,218.014H75.771v12.068h51.391c4.294,0,7.773-2.457,7.773-5.486v-1.097
						C134.935,220.47,131.456,218.014,127.162,218.014z"/>
				</g>
			</g>
			<g>
				<path fill="#333333" d="M127.162,217.032H74.839v1.64h3.573v0.006h48.75c3.772,0,6.842,2.092,6.842,4.663v1.097
					c0,2.571-3.069,4.663-6.842,4.663h-48.75v0.006h-3.573v1.64h52.323c4.8,0,8.705-2.83,8.705-6.309v-1.097
					C135.867,219.862,131.962,217.032,127.162,217.032z"/>
			</g>
			<g>
				<g>
					<path fill="#333333" d="M123.79,204.026H78.405v12.068h45.385c3.793,0,6.866-2.457,6.866-5.486v-1.097
						C130.656,206.483,127.583,204.026,123.79,204.026z"/>
				</g>
			</g>
			<g>
				<path fill="#F3F3F3" d="M123.79,203.045H77.582v1.64h3.155v0.006h43.053c3.333,0,6.043,2.092,6.043,4.663v1.097
					c0,2.571-2.71,4.663-6.043,4.663H80.737v0.006h-3.155v1.64h46.208c4.24,0,7.688-2.83,7.688-6.309v-1.097
					C131.479,205.875,128.03,203.045,123.79,203.045z"/>
			</g>
			<g>
				<path fill="#D6BA92" d="M196.588,116.046c0,0,0.001,2.561,0.641,5.395h51.108c0,0,1.555-1.554,1.006-4.48
					c-0.548-2.925-1.463-24.411-13.349-24.137c-11.885,0.274-19.476,5.851-19.383,6.217
					C216.703,99.407,195.217,99.589,196.588,116.046z"/>
			</g>
			<g>
				<path d="M196.682,116.594c0,0-0.001-12.068,10.604-13.348c10.606-1.28,19.566-7.131,19.566-7.131s15.438-7.985,20.27,14.677
					c0.073,0.343,0.14,0.693,0.21,1.049c1.64,8.413,2.128,6.75,2.128,6.75s5.187-12.966,3.357-25.401
					c-1.828-12.434-10.788-7.131-10.788-7.131s-14.629-19.749-40.777,0.731c0,0-6.585,7.818-17.919,6.949
					c0,0,2.561,7.131,12.251,10.057C195.584,103.794,194.854,108.365,196.682,116.594z"/>
			</g>
			<g>
				<rect x="327.585" y="202.326" fill="#333333" width="21.212" height="28.525"/>
			</g>
			<g>
				<rect y="231.063" fill="#333333" width="446.875" height="15.995"/>
			</g>
			<g>
				<polygon fill="#333333" points="54.972,231.063 54.972,256.914 54.972,406.604 82.641,406.604 82.641,256.914 355.812,256.914 
					355.812,406.604 382.144,406.604 382.144,256.914 382.144,231.063 				"/>
			</g>
			<g>
				<g>
					<path fill="#333333" d="M386.418,100.374c-8.792-8.414-22.739-8.108-31.154,0.684l31.838,30.469
						C395.516,122.735,395.211,108.788,386.418,100.374z"/>
				</g>
			</g>
			<g>
				<g>
					<path fill="#333333" d="M412.567,222.82c-0.016,2.827-2.497,5.103-5.542,5.086l-7.101-0.039
						c-3.044-0.018-5.5-2.322-5.484-5.148l0,0c0.015-2.826,2.497-5.104,5.542-5.087l7.101,0.039
						C410.128,217.688,412.584,219.994,412.567,222.82L412.567,222.82z"/>
				</g>
				<g>
					<path fill="#333333" d="M403.47,219.648c-8.682-0.048-15.747,4.838-15.78,10.916l31.439,0.175
						C419.162,224.663,412.152,219.697,403.47,219.648z"/>
				</g>
			</g>
			<g>
				<g>
					
						<rect x="402.472" y="94.335" transform="matrix(0.8846 -0.4664 0.4664 0.8846 -11.8209 202.7535)" fill="#333333" width="2.469" height="61.846"/>
				</g>
				<g>
					
						<rect x="406.354" y="92.288" transform="matrix(0.8846 -0.4664 0.4664 0.8846 -10.4181 204.3278)" fill="#333333" width="2.469" height="61.846"/>
				</g>
			</g>
			<g>
				<g>
					
						<rect x="407.934" y="152.477" transform="matrix(0.972 0.2352 -0.2352 0.972 55.7146 -90.9505)" fill="#333333" width="2.469" height="71.263"/>
				</g>
				<g>
					
						<rect x="412.2" y="153.51" transform="matrix(0.9719 0.2354 -0.2354 0.9719 56.1312 -91.9933)" fill="#333333" width="2.469" height="71.263"/>
				</g>
			</g>
			<g>
				<path fill="#333333" d="M425.392,152.09c0,1.601-1.661,2.898-3.71,2.898h-4.924c-2.049,0-3.709-1.297-3.709-2.898l0,0
					c0-1.601,1.66-2.898,3.709-2.898h4.924C423.73,149.192,425.392,150.49,425.392,152.09L425.392,152.09z"/>
			</g>
			<g>
				<path fill="#333333" d="M392.478,104.97c-3.405,3.467-8.64,3.849-11.689,0.853l0,0c-3.052-2.997-2.763-8.236,0.644-11.704
					l4.354-4.429c3.406-3.468,8.639-3.851,11.689-0.854l0,0c3.049,2.996,2.762,8.236-0.645,11.702L392.478,104.97z"/>
			</g>
			<g>
				<path fill="#333333" d="M291.734,198.962c0,5.341-4.676,9.671-10.444,9.671H161.194c-5.768,0-10.442-4.331-10.442-9.671v-82.204
					c0-5.341,4.675-9.671,10.442-9.671H281.29c5.769,0,10.444,4.33,10.444,9.671V198.962z"/>
			</g>
			<g>
				<rect x="211.643" y="178.949" fill="#F3F3F3" width="23.589" height="48.087"/>
			</g>
			<g>
				<g>
					<path fill="#FFFFFF" d="M206.628,159.326v-27.045h6.922v2.85h-3.224v21.345h3.224v2.85H206.628z"/>
					<path fill="#FFFFFF" d="M237.027,132.281v27.045h-6.922v-2.85h3.224v-21.345h-3.224v-2.85H237.027z"/>
				</g>
				<g>
					<path fill="#7BAD41" d="M226.502,144.75c-3.946-6.339-11.524-6.148-11.524-6.148s2.88,2.764,2.655,8.435
						c-0.225,5.671,2.798,7.712,5.447,7.387c0.314-0.039,0.642-0.098,0.955-0.164c-0.35-6.335-4.985-12.449-4.985-12.449
						c4.28,3.309,6.407,11.313,6.588,12.022C226.051,153.577,230.26,150.783,226.502,144.75z"/>
				</g>
			</g>
			<g>
				<rect x="189.7" y="226.126" fill="#F3F3F3" width="68.022" height="4.937"/>
			</g>
			<g>
				<g>
					<circle fill="#333333" cx="318.066" cy="73.195" r="27.109"/>
				</g>
			</g>
			<g>
				<g>
					<path fill="#FFFFFF" d="M312.368,79.145l-8.741-5.437v-2.072l8.741-5.639v2.963l-6.519,3.604l6.519,3.716V79.145z"/>
				</g>
				<g>
					<path fill="#FFFFFF" d="M321.081,63.047l-4.595,19.362h-2.25l4.609-19.362H321.081z"/>
				</g>
				<g>
					<path fill="#FFFFFF" d="M331.969,73.708l-8.767,5.437v-2.851l6.531-3.716l-6.531-3.617v-2.963l8.767,5.639V73.708z"/>
				</g>
			</g>
			<g>
				<g>
					<polygon fill="#333333" points="300.314,92.817 298.062,104.39 308.886,98.604 					"/>
				</g>
			</g>
			<g>
				<g>
					<circle fill="#333333" cx="103.181" cy="157.372" r="25.057"/>
				</g>
			</g>
			<g>
				<g>
					<polygon fill="#333333" points="98.408,180.504 103.336,191.214 108.744,180.198 					"/>
				</g>
			</g>
			<g>
				<g>
					<g>
						
							<rect x="102.013" y="137.296" transform="matrix(0.2059 0.9786 -0.9786 0.2059 234.4411 23.8823)" fill="#FFFFFF" width="0.984" height="38.205"/>
					</g>
				</g>
				<g>
					<g>
						<path fill="#FFFFFF" d="M112.929,168.857l-0.977-0.115c0.006-0.053,0.594-5.425-2.377-8.763
							c-1.588-1.784-3.925-2.688-6.948-2.688c-3.029,0-5.392,0.909-7.022,2.7c-3.043,3.342-2.576,8.708-2.572,8.762l-0.979,0.093
							c-0.022-0.237-0.517-5.844,2.818-9.513c1.826-2.008,4.435-3.026,7.755-3.026c3.318,0,5.905,1.017,7.688,3.022
							C113.579,163.003,112.957,168.62,112.929,168.857z"/>
					</g>
				</g>
				<g>
					<g>
						<rect x="90.953" y="167.014" fill="#FFFFFF" width="3.115" height="3.115"/>
					</g>
					<g>
						<path fill="#FFFFFF" d="M94.561,170.621h-4.099v-4.098h4.099V170.621z M91.445,169.637h2.131v-2.131h-2.131V169.637z"/>
					</g>
				</g>
				<g>
					<g>
						<rect x="100.947" y="155.242" fill="#FFFFFF" width="3.115" height="3.115"/>
					</g>
					<g>
						<path fill="#FFFFFF" d="M104.554,158.849h-4.098v-4.098h4.098V158.849z M101.439,157.865h2.131v-2.131h-2.131V157.865z"/>
					</g>
				</g>
				<g>
					<g>
						<rect x="110.883" y="167.014" fill="#FFFFFF" width="3.116" height="3.115"/>
					</g>
					<g>
						<path fill="#FFFFFF" d="M114.49,170.621h-4.099v-4.098h4.099V170.621z M111.375,169.637h2.131v-2.131h-2.131V169.637z"/>
					</g>
				</g>
				<g>
					<g>
						
							<rect x="83.369" y="159.306" transform="matrix(0.9856 -0.1693 0.1693 0.9856 -25.9326 16.6082)" fill="#FFFFFF" width="2.067" height="2.068"/>
					</g>
					<g>
						<path fill="#FFFFFF" d="M83.159,162.102l-0.518-3.007l3.007-0.517l0.518,3.008L83.159,162.102z M83.778,159.897l0.183,1.068
							l1.068-0.184l-0.183-1.069L83.778,159.897z"/>
					</g>
				</g>
				<g>
					<g>
						
							<rect x="119.521" y="151.422" transform="matrix(0.9855 -0.1696 0.1696 0.9855 -24.1056 22.6499)" fill="#FFFFFF" width="2.068" height="2.068"/>
					</g>
					<g>
						<path fill="#FFFFFF" d="M119.31,154.218l-0.518-3.008l3.009-0.517l0.516,3.007L119.31,154.218z M119.929,152.013l0.184,1.069
							l1.068-0.184l-0.183-1.068L119.929,152.013z"/>
					</g>
				</g>
				<g>
					<path fill="#FFFFFF" d="M106.548,148.512l0.028-0.042l-0.061-0.004c-0.262-0.379-1.69-2.546-1.632-4.336l0.832,0.067
						l0.046-0.586l-0.859-0.069l0.098-1.228l-2.726-0.219l-0.099,1.227l-0.729-0.059l-0.047,0.587l0.753,0.061
						c-0.239,1.867-2.167,3.88-2.338,4.055l-0.03-0.002l0.011,0.022c-0.001,0.001-0.013,0.014-0.013,0.014l0.02,0.001l1.459,3.031
						l1.479,3.067l1.917-2.814l1.868-2.743l0.043,0.004C106.571,148.545,106.553,148.519,106.548,148.512z"/>
				</g>
			</g>
			<g>
				<circle fill="#333333" cx="149.383" cy="65.997" r="8.228"/>
			</g>
			<g>
				<circle fill="#333333" cx="172.656" cy="74.44" r="5.349"/>
			</g>
			<g>
				<path fill="#333333" d="M106.25,10.525c0,0,9.289-4.942,17.449-0.416c9.348,5.185,7.814,16.907,7.814,16.907
					s12.14,7.848,6.307,21.258c-6.14,14.118-20.171,7.836-20.171,7.836s-1.169,13.424-17.541,14.762
					C83.737,72.209,80.229,61.1,80.229,61.1s-18.71,2.414-23.681-12.826c-4.969-15.239,2.67-25.845,10.923-27.809
					c0,0-3-17.314,18.604-20.172C103.856-2.059,106.25,10.525,106.25,10.525z"/>
			</g>
			<g>
				<path fill="#FFFFFF" d="M96.215,58.496c0.687,0,1.243-0.318,1.243-0.71h-2.487C94.971,58.178,95.528,58.496,96.215,58.496z"/>
			</g>
			<g>
				<path fill="#FFFFFF" d="M105.353,36.998c0-5.035-4.081-9.118-9.116-9.118c-5.037,0-9.118,4.083-9.118,9.118
					c0,1.811,0.535,3.495,1.445,4.914h-0.01c0.6,1.442,1.31,2.486,1.31,2.486s1.221,1.688,1.31,3.708s0.733,2.398,0.733,2.398h4.33
					h4.329c0,0,0.643-0.378,0.733-2.398c0.088-2.02,1.311-3.708,1.311-3.708s0.709-1.044,1.308-2.486h-0.01
					C104.818,40.493,105.353,38.809,105.353,36.998z"/>
			</g>
			<g>
				<path fill="#FFFFFF" d="M99.966,51.822c0,0.277-0.198,0.502-0.443,0.502h-6.571c-0.246,0-0.444-0.225-0.444-0.502v-0.151
					c0-0.277,0.198-0.502,0.444-0.502h6.571c0.245,0,0.443,0.225,0.443,0.502V51.822z"/>
			</g>
			<g>
				<path fill="#FFFFFF" d="M99.567,53.354c0,0.278-0.178,0.503-0.396,0.503h-5.868c-0.218,0-0.395-0.225-0.395-0.503v-0.15
					c0-0.277,0.177-0.501,0.395-0.501h5.868c0.219,0,0.396,0.225,0.396,0.501V53.354z"/>
			</g>
			<g>
				<path fill="#FFFFFF" d="M99.567,54.953c0,0.277-0.178,0.501-0.396,0.501h-5.868c-0.218,0-0.395-0.224-0.395-0.501v-0.15
					c0-0.277,0.177-0.502,0.395-0.502h5.868c0.219,0,0.396,0.225,0.396,0.502V54.953z"/>
			</g>
			<g>
				<polygon fill="#FFFFFF" points="93.217,55.832 94.949,57.475 97.547,57.475 99.212,55.832 				"/>
			</g>
			<g>
				
					<rect x="75.452" y="31.311" transform="matrix(0.8648 0.5021 -0.5021 0.8648 26.7512 -35.6246)" fill="#FFFFFF" width="8.145" height="1.097"/>
			</g>
			<g>
				
					<rect x="80.602" y="23.7" transform="matrix(0.7066 0.7076 -0.7076 0.7066 42.0024 -52.8025)" fill="#FFFFFF" width="8.146" height="1.098"/>
			</g>
			<g>
				
					<rect x="112.934" y="27.665" transform="matrix(0.5019 0.8649 -0.8649 0.5019 83.9793 -82.3464)" fill="#FFFFFF" width="1.097" height="8.146"/>
			</g>
			<g>
				
					<rect x="107.682" y="20.176" transform="matrix(0.7076 0.7067 -0.7067 0.7076 48.7876 -69.3914)" fill="#FFFFFF" width="1.098" height="8.146"/>
			</g>
			<g>
				
					<rect x="94.837" y="17.032" transform="matrix(1 0.0067 -0.0067 1 0.143 -0.6363)" fill="#FFFFFF" width="1.097" height="8.146"/>
			</g>
		</g>
	</g>
</g>
</svg>
