<?xml version="1.0" encoding="UTF-8" standalone="no"?>
<!-- Generator: Adobe Illustrator 15.0.0, SVG Export Plug-In . SVG Version: 6.00 Build 0)  -->

<svg
   xmlns:dc="http://purl.org/dc/elements/1.1/"
   xmlns:cc="http://creativecommons.org/ns#"
   xmlns:rdf="http://www.w3.org/1999/02/22-rdf-syntax-ns#"
   xmlns:svg="http://www.w3.org/2000/svg"
   xmlns="http://www.w3.org/2000/svg"
   xmlns:sodipodi="http://sodipodi.sourceforge.net/DTD/sodipodi-0.dtd"
   xmlns:inkscape="http://www.inkscape.org/namespaces/inkscape"
   version="1.1"
   id="Layer_1"
   x="0px"
   y="0px"
   width="490"
   height="440"
   viewBox="0 0 490 440"
   enable-background="new 0 0 512 512"
   xml:space="preserve"
   inkscape:version="0.91 r13725"
   sodipodi:docname="siged_logo.svg"><metadata
     id="metadata55"><rdf:RDF><cc:Work
         rdf:about=""><dc:format>image/svg+xml</dc:format><dc:type
           rdf:resource="http://purl.org/dc/dcmitype/StillImage" /><dc:title></dc:title></cc:Work></rdf:RDF></metadata><defs
     id="defs53" /><sodipodi:namedview
     pagecolor="#ffffff"
     bordercolor="#666666"
     borderopacity="1"
     objecttolerance="10"
     gridtolerance="10"
     guidetolerance="10"
     inkscape:pageopacity="0"
     inkscape:pageshadow="2"
     inkscape:window-width="1366"
     inkscape:window-height="705"
     id="namedview51"
     showgrid="false"
     inkscape:zoom="0.65186406"
     inkscape:cx="-105.72256"
     inkscape:cy="235.66626"
     inkscape:window-x="0"
     inkscape:window-y="30"
     inkscape:window-maximized="1"
     inkscape:current-layer="Layer_1"
     inkscape:showpageshadow="false" /><g
     style="fill:#ffffff"
     id="g7"
     transform="translate(-21.45469,-27.193124)"><g
       style="fill:#ffffff"
       id="g9"><path
         inkscape:connector-curvature="0"
         style="fill:#ffffff"
         id="path11"
         d="m 131.75,42 -79.875,0 c -9.802,0 -17.75,7.948 -17.75,17.75 l 0,381.625 c 0,9.802 7.948,17.75 17.75,17.75 l 79.875,0 c 9.802,0 17.75,-7.948 17.75,-17.75 l 0,-381.625 C 149.5,49.948 141.552,42 131.75,42 Z M 91.813,405.874 c -17.156,0 -31.063,-13.901 -31.063,-31.062 0,-17.16 13.906,-31.062 31.062,-31.062 17.156,0 31.063,13.902 31.063,31.062 0,17.161 -13.906,31.062 -31.062,31.062 z M 131.75,290.5 c 0,4.881 -3.994,8.875 -8.875,8.875 l -62.125,0 c -4.881,0 -8.875,-3.994 -8.875,-8.875 l 0,-177.5 c 0,-4.881 3.994,-8.875 8.875,-8.875 l 62.125,0 c 4.881,0 8.875,3.994 8.875,8.875 l 0,177.5 z" /><circle
         style="fill:#ffffff"
         id="circle13"
         r="22.188"
         cy="374.81201"
         cx="91.811996" /><rect
         style="fill:#ffffff"
         id="rect15"
         height="35.5"
         width="44.375"
         y="121.875"
         x="69.625" /><rect
         style="fill:#ffffff"
         id="rect17"
         height="8.875"
         width="44.375"
         y="228.375"
         x="69.625" /><rect
         style="fill:#ffffff"
         id="rect19"
         height="8.875"
         width="44.375"
         y="246.125"
         x="69.625" /><rect
         style="fill:#ffffff"
         id="rect21"
         height="8.875"
         width="44.375"
         y="263.875"
         x="69.625" /></g><g
       style="fill:#ffffff"
       id="g23"><path
         inkscape:connector-curvature="0"
         style="fill:#ffffff"
         id="path25"
         d="m 273.75,42 -79.875,0 c -9.802,0 -17.75,7.948 -17.75,17.75 l 0,381.625 c 0,9.802 7.948,17.75 17.75,17.75 l 79.875,0 c 9.802,0 17.75,-7.948 17.75,-17.75 l 0,-381.625 C 291.5,49.948 283.552,42 273.75,42 Z m -39.937,363.874 c -17.156,0 -31.062,-13.902 -31.062,-31.062 0,-17.159 13.906,-31.062 31.062,-31.062 17.156,0 31.062,13.902 31.062,31.062 0,17.161 -13.906,31.062 -31.062,31.062 z M 273.75,290.5 c 0,4.881 -3.994,8.875 -8.875,8.875 l -62.125,0 c -4.881,0 -8.875,-3.994 -8.875,-8.875 l 0,-177.5 c 0,-4.881 3.994,-8.875 8.875,-8.875 l 62.125,0 c 4.881,0 8.875,3.994 8.875,8.875 l 0,177.5 z" /><circle
         style="fill:#ffffff"
         id="circle27"
         r="22.188"
         cy="374.81201"
         cx="233.812" /><rect
         style="fill:#ffffff"
         id="rect29"
         height="35.5"
         width="44.375"
         y="121.875"
         x="211.625" /><rect
         style="fill:#ffffff"
         id="rect31"
         height="8.875"
         width="44.375"
         y="228.375"
         x="211.625" /><rect
         style="fill:#ffffff"
         id="rect33"
         height="8.875"
         width="44.375"
         y="246.125"
         x="211.625" /><rect
         style="fill:#ffffff"
         id="rect35"
         height="8.875"
         width="44.375"
         y="263.875"
         x="211.625" /></g><g
       style="fill:#ffffff"
       id="g37"><path
         inkscape:connector-curvature="0"
         style="fill:#ffffff"
         id="path39"
         d="M 504.119,420.764 425.882,47.243 C 423.871,37.649 414.463,31.504 404.873,33.506 l -78.182,16.381 c -9.594,2.01 -15.742,11.414 -13.731,21.009 l 78.235,373.521 c 2.012,9.594 11.42,15.739 21.01,13.737 l 78.181,-16.381 c 9.594,-2.01 15.743,-11.414 13.733,-21.009 z M 388.145,299.975 c -4.778,1 -9.506,-2.091 -10.506,-6.867 l -36.39,-173.727 c -1.001,-4.778 2.089,-9.505 6.867,-10.506 l 60.808,-12.741 c 4.777,-1.001 9.505,2.089 10.506,6.867 l 36.385,173.733 c 1.001,4.777 -2.091,9.505 -6.867,10.506 l -60.803,12.735 z m 52.237,97.866 c -16.792,3.52 -33.256,-7.237 -36.773,-24.033 -3.519,-16.797 7.245,-33.256 24.038,-36.766 16.786,-3.519 33.25,7.237 36.769,24.033 3.518,16.797 -7.247,33.256 -24.034,36.766 z" /><path
         inkscape:connector-curvature="0"
         style="fill:#ffffff"
         id="path41"
         d="m 455.727,362.895 c 2.514,11.995 -5.17,23.748 -17.164,26.262 -11.995,2.513 -23.753,-5.174 -26.267,-17.17 -2.513,-11.995 5.171,-23.747 17.165,-26.261 11.995,-2.513 23.757,5.175 26.266,17.169 z" /><polygon
         style="fill:#ffffff"
         id="polygon43"
         points="367.718,159.169 360.441,124.423 403.872,115.331 411.152,150.077 " /><rect
         style="fill:#ffffff"
         id="rect45"
         height="8.8730001"
         width="44.374001"
         transform="matrix(0.9788,-0.2049,0.2049,0.9788,-38.2184,87.8065)"
         y="224.02"
         x="382.71201" /><rect
         style="fill:#ffffff"
         id="rect47"
         height="8.8739996"
         width="44.368999"
         transform="matrix(0.9787,-0.2051,0.2051,0.9787,-41.7327,89.0181)"
         y="241.384"
         x="386.358" /><rect
         style="fill:#ffffff"
         id="rect49"
         height="8.8730001"
         width="44.376999"
         transform="matrix(0.9788,-0.2049,0.2049,0.9788,-45.1862,90.0495)"
         y="258.75601"
         x="389.995" /></g></g></svg>